<?xml version="1.0" standalone="no"?>
<!DOCTYPE svg PUBLIC "-//W3C//DTD SVG 20010904//EN"
 "http://www.w3.org/TR/2001/REC-SVG-20010904/DTD/svg10.dtd">
<svg version="1.0" xmlns="http://www.w3.org/2000/svg"
 width="225.000000pt" height="225.000000pt" viewBox="0 0 225.000000 225.000000"
 preserveAspectRatio="xMidYMid meet">
<metadata>
Created by potrace 1.11, written by Peter Selinger 2001-2013
</metadata>
<g transform="translate(0.000000,225.000000) scale(0.100000,-0.100000)"
fill="#000000" stroke="none">
<path d="M551 1622 c-71 -38 -71 -38 -71 -497 0 -379 1 -413 18 -445 38 -72
24 -70 627 -70 504 0 543 1 574 18 72 39 71 32 71 549 l0 463 -125 0 c-69 0
-125 -2 -125 -5 0 -3 27 -59 60 -125 33 -66 60 -122 60 -125 0 -3 -44 -5 -98
-5 l-98 0 -64 130 -64 130 -63 0 -63 0 65 -130 65 -130 -98 0 -98 0 -64 130
-64 130 -63 0 -63 0 60 -120 c33 -66 60 -124 60 -130 0 -6 -37 -10 -95 -10
l-95 0 -65 130 -65 130 -43 0 c-23 0 -58 -8 -76 -18z"/>
</g>
</svg>
